<svg id="visual" viewBox="0 0 450 900" width="450" height="900" xmlns="http://www.w3.org/2000/svg" xmlns:xlink="http://www.w3.org/1999/xlink" version="1.1"><rect x="0" y="0" width="450" height="900" fill="#FFFFFF"></rect><defs><linearGradient id="grad1_0" x1="0%" y1="0%" x2="100%" y2="100%"><stop offset="30%" stop-color="#ed6519" stop-opacity="1"></stop><stop offset="70%" stop-color="#ed6519" stop-opacity="1"></stop></linearGradient></defs><defs><linearGradient id="grad1_1" x1="0%" y1="0%" x2="100%" y2="100%"><stop offset="30%" stop-color="#ed6519" stop-opacity="1"></stop><stop offset="70%" stop-color="#ffffff" stop-opacity="1"></stop></linearGradient></defs><defs><linearGradient id="grad2_0" x1="0%" y1="0%" x2="100%" y2="100%"><stop offset="30%" stop-color="#ed6519" stop-opacity="1"></stop><stop offset="70%" stop-color="#ed6519" stop-opacity="1"></stop></linearGradient></defs><defs><linearGradient id="grad2_1" x1="0%" y1="0%" x2="100%" y2="100%"><stop offset="30%" stop-color="#ffffff" stop-opacity="1"></stop><stop offset="70%" stop-color="#ed6519" stop-opacity="1"></stop></linearGradient></defs><g transform="translate(450, 0)"><path d="M0 382.5C-31.2 359.2 -62.4 335.9 -82.8 309.1C-103.2 282.3 -112.8 252 -143.5 248.5C-174.2 245.1 -225.9 268.6 -263.8 263.8C-301.6 258.9 -325.7 225.9 -331.3 191.3C-336.8 156.6 -323.9 120.4 -329.4 88.3C-334.8 56.1 -358.7 28.1 -382.5 0L0 0Z" fill="#ffb38c"></path><path d="M0 191.3C-15.6 179.6 -31.2 168 -41.4 154.5C-51.6 141.1 -56.4 126 -71.7 124.3C-87.1 122.6 -112.9 134.3 -131.9 131.9C-150.8 129.5 -162.8 112.9 -165.6 95.6C-168.4 78.3 -162 60.2 -164.7 44.1C-167.4 28.1 -179.3 14 -191.2 0L0 0Z" fill="#ed6519"></path></g><g transform="translate(0, 900)"><path d="M0 -382.5C32.8 -362.2 65.6 -341.9 83.3 -311C101.1 -280.1 103.9 -238.6 135 -233.8C166.1 -229.1 225.5 -261.2 255.3 -255.3C285 -249.3 285.2 -205.4 302.2 -174.5C319.3 -143.6 353.3 -125.9 369.5 -99C385.7 -72.1 384.1 -36.1 382.5 0L0 0Z" fill="#ffb38c"></path><path d="M0 -191.2C16.4 -181.1 32.8 -171 41.7 -155.5C50.6 -140.1 52 -119.3 67.5 -116.9C83 -114.5 112.7 -130.6 127.6 -127.6C142.5 -124.7 142.6 -102.7 151.1 -87.3C159.7 -71.8 176.6 -62.9 184.7 -49.5C192.8 -36.1 192 -18 191.3 0L0 0Z" fill="#ed6519"></path></g></svg>